<svg xmlns="http://www.w3.org/2000/svg" fill="none" viewBox="0 0 120 165">
    <path
        d="m12.584 65.678-1.756-13.626c-.862-3.35-1.562-8.677-1.562-11.888 0-3.212 1.126-8.392 2.512-11.561l2.81-6.422c1.386-3.17 4.903-7.213 7.85-9.026l3.872-2.383c2.946-1.813 8.057-3.984 11.407-4.846 14.84-3.817 33.323-3.835 43.494-.43 3.28 1.099 8.334 3.463 11.28 5.276l3.873 2.383c2.946 1.813 6.568 5.809 8.083 8.918l3.237 6.639c1.515 3.109 2.746 8.24 2.746 11.452 0 3.21-.774 8.518-1.728 11.843l-2.036 13.67m-94.082 0c1.486 0 3.277 6.394 4.516 7.823.111-5.751-.143-17.541 0-24.104l2.38-9.68 12.168-8.952h55.505l12.17 8.952 2.378 9.68c.303 6.22-.188 17.944 0 24.104 1.262-1.507 3.438-7.822 4.965-7.822m-94.082 0c-2.52 0-7.482.75-9.135 4.477-1.654 3.727 1.79 10.432 1.79 16.114 0 11.365 2.303 20.591 7.345 20.591 1.293 0 2.523-.607 3.635-1.714.002 11.267.251 19.604.881 24.991.267 2.281 6.496 7.239 23.394 16.863m66.172-81.322c2.521 0 7.482.75 9.135 4.477 1.654 3.727-1.79 10.432-1.79 16.114 0 11.365-2.303 20.591-7.345 20.591-1.379 0-2.687-.69-3.86-1.928-.123 10.363-.495 19.1-1.105 25.205-.385 3.853-11.746 8.919-22.195 16.863M40 142.727c0-5.319 7.992.601 11.613 0C55.233 142.124 54.48 135 60 135s6.058 7.124 9.677 7.727c3.62.601 10.323-5.319 10.323 0C80 153.364 71.04 162 60 162s-20-8.636-20-19.273Z"
        stroke="#fff" stroke-width="6" />
</svg>